<svg width="23" height="26" viewBox="0 0 23 26" fill="none" xmlns="http://www.w3.org/2000/svg">
<path d="M20.4017 26L12.6589 16.9C12.0444 17.4778 11.3377 17.9352 10.5388 18.2722C9.73997 18.6093 8.8899 18.7778 7.98862 18.7778C5.7559 18.7778 3.86649 17.8687 2.32039 16.0507C0.774282 14.2326 0.000819996 12.012 6.50274e-07 9.38889C-0.000818695 6.76578 0.772643 4.54519 2.32039 2.72711C3.86813 0.909037 5.75754 0 7.98862 0C10.2197 0 12.1095 0.909037 13.6581 2.72711C15.2066 4.54519 15.9797 6.76578 15.9772 9.38889C15.9772 10.4481 15.8339 11.4472 15.5471 12.3861C15.2603 13.325 14.8711 14.1556 14.3795 14.8778L22.1223 23.9778L20.4017 26ZM7.98862 15.8889C9.52489 15.8889 10.8309 15.2572 11.9067 13.9938C12.9825 12.7304 13.52 11.1954 13.5192 9.38889C13.5184 7.58237 12.9809 6.04789 11.9067 4.78544C10.8326 3.523 9.52653 2.89081 7.98862 2.88889C6.45071 2.88696 5.14508 3.51915 4.07174 4.78544C2.9984 6.05174 2.4605 7.58622 2.45804 9.38889C2.45558 11.1916 2.99348 12.7265 4.07174 13.9938C5.15 15.261 6.45562 15.8927 7.98862 15.8889Z" fill="black"/>
</svg>
