<svg width="31" height="31" viewBox="0 0 31 31" fill="none" xmlns="http://www.w3.org/2000/svg">
<path d="M3.85615 8.99769H26.9931C27.7643 8.99769 28.2785 8.48353 28.2785 7.7123C28.2785 6.94107 27.7643 6.42692 26.9931 6.42692H3.85615C3.08492 6.42692 2.57077 6.94107 2.57077 7.7123C2.57077 8.48353 3.08492 8.99769 3.85615 8.99769ZM3.85615 14.1392H21.8515C22.6228 14.1392 23.1369 13.6251 23.1369 12.8538C23.1369 12.0826 22.6228 11.5685 21.8515 11.5685H3.85615C3.08492 11.5685 2.57077 12.0826 2.57077 12.8538C2.57077 13.6251 3.08492 14.1392 3.85615 14.1392ZM26.9931 16.71H3.85615C3.08492 16.71 2.57077 17.2241 2.57077 17.9954C2.57077 18.7666 3.08492 19.2808 3.85615 19.2808H26.9931C27.7643 19.2808 28.2785 18.7666 28.2785 17.9954C28.2785 17.2241 27.7643 16.71 26.9931 16.71ZM21.8515 21.8515H3.85615C3.08492 21.8515 2.57077 22.3657 2.57077 23.1369C2.57077 23.9081 3.08492 24.4223 3.85615 24.4223H21.8515C22.6228 24.4223 23.1369 23.9081 23.1369 23.1369C23.1369 22.3657 22.6228 21.8515 21.8515 21.8515Z" fill="white"/>
</svg>
